<svg width="13" height="21" viewBox="0 0 13 21" fill="none" xmlns="http://www.w3.org/2000/svg">
<g filter="url(#filter0_d_0_2197)">
<path d="M1.96967 3.03033C1.67678 2.73744 1.67678 2.26256 1.96967 1.96967C2.26256 1.67678 2.73744 1.67678 3.03033 1.96967L10.8397 9.77906C11.2302 10.1696 11.2302 10.8027 10.8397 11.1933L3.03033 19.0027C2.73744 19.2955 2.26256 19.2955 1.96967 19.0027C1.67678 18.7098 1.67678 18.2349 1.96967 17.942L9.4255 10.4862L1.96967 3.03033Z" fill="white"/>
<path d="M1.89896 1.89896C1.56701 2.2309 1.56701 2.7691 1.89896 3.10104L9.28408 10.4862L1.89896 17.8713C1.56701 18.2032 1.56701 18.7414 1.89896 19.0734C2.2309 19.4053 2.7691 19.4053 3.10104 19.0734L10.9104 11.264C11.34 10.8344 11.34 10.1379 10.9104 9.70835L3.10104 1.89896C2.7691 1.56701 2.2309 1.56701 1.89896 1.89896Z" stroke="black" stroke-opacity="0.2" stroke-width="0.2"/>
</g>
<defs>
<filter id="filter0_d_0_2197" x="0.549988" y="0.549988" width="11.7826" height="19.8723" filterUnits="userSpaceOnUse" color-interpolation-filters="sRGB">
<feFlood flood-opacity="0" result="BackgroundImageFix"/>
<feColorMatrix in="SourceAlpha" type="matrix" values="0 0 0 0 0 0 0 0 0 0 0 0 0 0 0 0 0 0 127 0" result="hardAlpha"/>
<feOffset/>
<feGaussianBlur stdDeviation="0.5"/>
<feColorMatrix type="matrix" values="0 0 0 0 0.14902 0 0 0 0 0.14902 0 0 0 0 0.14902 0 0 0 0.4 0"/>
<feBlend mode="normal" in2="BackgroundImageFix" result="effect1_dropShadow_0_2197"/>
<feBlend mode="normal" in="SourceGraphic" in2="effect1_dropShadow_0_2197" result="shape"/>
</filter>
</defs>
</svg>
