<svg width="37" height="32" viewBox="0 0 37 32" fill="none" xmlns="http://www.w3.org/2000/svg">
<g filter="url(#filter0_d_0_2226)">
<mask id="path-1-outside-1_0_2226" maskUnits="userSpaceOnUse" x="0.246094" y="1.24609" width="30" height="30" fill="black">
<rect fill="white" x="0.246094" y="1.24609" width="30" height="30"/>
<path fill-rule="evenodd" clip-rule="evenodd" d="M20.3738 3.10935C12.9783 0.417634 4.80107 4.23075 2.10935 11.6262C-0.582366 19.0216 3.23075 27.1989 10.6262 29.8906C18.0216 32.5823 26.1989 28.7692 28.8906 21.3738C29.5388 19.5927 29.8216 17.7323 29.7399 15.8781C29.6576 14.0082 29.2052 12.1726 28.4149 10.4777C27.6245 8.78277 26.5091 7.25631 25.1296 5.99124C24.8243 5.71128 24.3499 5.73181 24.0699 6.0371C23.79 6.34238 23.8105 6.81681 24.1158 7.09677C25.3497 8.22833 26.3479 9.59438 27.0554 11.1116C27.7629 12.6288 28.1677 14.2715 28.2414 15.9441C28.3144 17.6022 28.0616 19.2658 27.4811 20.8607C25.0727 27.4777 17.7562 30.8894 11.1392 28.4811C4.52225 26.0727 1.11051 18.7562 3.51889 12.1392C5.92727 5.52225 13.2438 2.11051 19.8607 4.51889C20.25 4.66056 20.6803 4.45987 20.822 4.07064C20.9637 3.6814 20.763 3.25102 20.3738 3.10935ZM20.4326 20.9957C20.0845 20.7712 19.6203 20.8714 19.3958 21.2194C18.6984 22.3007 17.4317 22.8543 15.5 22.8543C13.5599 22.8543 12.2458 22.2941 11.473 21.1947C11.2348 20.8558 10.767 20.7742 10.4282 21.0124C10.0893 21.2506 10.0077 21.7184 10.2458 22.0572C11.3272 23.5957 13.1067 24.3543 15.5 24.3543C17.9016 24.3543 19.6523 23.5891 20.6563 22.0325C20.8808 21.6844 20.7806 21.2202 20.4326 20.9957ZM10.5 14C11.4665 14 12.25 14.7835 12.25 15.75C12.25 16.7165 11.4665 17.5 10.5 17.5C9.53347 17.5 8.74997 16.7165 8.74997 15.75C8.74997 14.7835 9.53347 14 10.5 14ZM22.25 15.75C22.25 14.7835 21.4665 14 20.5 14C19.5335 14 18.75 14.7835 18.75 15.75C18.75 16.7165 19.5335 17.5 20.5 17.5C21.4665 17.5 22.25 16.7165 22.25 15.75Z"/>
</mask>
<path fill-rule="evenodd" clip-rule="evenodd" d="M20.3738 3.10935C12.9783 0.417634 4.80107 4.23075 2.10935 11.6262C-0.582366 19.0216 3.23075 27.1989 10.6262 29.8906C18.0216 32.5823 26.1989 28.7692 28.8906 21.3738C29.5388 19.5927 29.8216 17.7323 29.7399 15.8781C29.6576 14.0082 29.2052 12.1726 28.4149 10.4777C27.6245 8.78277 26.5091 7.25631 25.1296 5.99124C24.8243 5.71128 24.3499 5.73181 24.0699 6.0371C23.79 6.34238 23.8105 6.81681 24.1158 7.09677C25.3497 8.22833 26.3479 9.59438 27.0554 11.1116C27.7629 12.6288 28.1677 14.2715 28.2414 15.9441C28.3144 17.6022 28.0616 19.2658 27.4811 20.8607C25.0727 27.4777 17.7562 30.8894 11.1392 28.4811C4.52225 26.0727 1.11051 18.7562 3.51889 12.1392C5.92727 5.52225 13.2438 2.11051 19.8607 4.51889C20.25 4.66056 20.6803 4.45987 20.822 4.07064C20.9637 3.6814 20.763 3.25102 20.3738 3.10935ZM20.4326 20.9957C20.0845 20.7712 19.6203 20.8714 19.3958 21.2194C18.6984 22.3007 17.4317 22.8543 15.5 22.8543C13.5599 22.8543 12.2458 22.2941 11.473 21.1947C11.2348 20.8558 10.767 20.7742 10.4282 21.0124C10.0893 21.2506 10.0077 21.7184 10.2458 22.0572C11.3272 23.5957 13.1067 24.3543 15.5 24.3543C17.9016 24.3543 19.6523 23.5891 20.6563 22.0325C20.8808 21.6844 20.7806 21.2202 20.4326 20.9957ZM10.5 14C11.4665 14 12.25 14.7835 12.25 15.75C12.25 16.7165 11.4665 17.5 10.5 17.5C9.53347 17.5 8.74997 16.7165 8.74997 15.75C8.74997 14.7835 9.53347 14 10.5 14ZM22.25 15.75C22.25 14.7835 21.4665 14 20.5 14C19.5335 14 18.75 14.7835 18.75 15.75C18.75 16.7165 19.5335 17.5 20.5 17.5C21.4665 17.5 22.25 16.7165 22.25 15.75Z" fill="white"/>
<path d="M20.3738 3.10935L20.4422 2.92141L20.3738 3.10935ZM28.8906 21.3738L29.0785 21.4422L28.8906 21.3738ZM29.7399 15.8781L29.9397 15.8693L29.7399 15.8781ZM25.1296 5.99124L24.9944 6.13864V6.13864L25.1296 5.99124ZM24.0699 6.0371L23.9225 5.90192L24.0699 6.0371ZM24.1158 7.09677L23.9806 7.24417L24.1158 7.09677ZM28.2414 15.9441L28.0416 15.9529L28.2414 15.9441ZM27.4811 20.8607L27.669 20.9291L27.4811 20.8607ZM3.51889 12.1392L3.70683 12.2076L3.51889 12.1392ZM19.8607 4.51889L19.9291 4.33095L19.8607 4.51889ZM19.3958 21.2194L19.2277 21.111V21.111L19.3958 21.2194ZM20.4326 20.9957L20.3241 21.1638H20.3241L20.4326 20.9957ZM11.473 21.1947L11.3094 21.3097L11.473 21.1947ZM10.4282 21.0124L10.3132 20.8487H10.3132L10.4282 21.0124ZM10.2458 22.0572L10.0822 22.1722L10.2458 22.0572ZM20.6563 22.0325L20.8244 22.1409L20.6563 22.0325ZM2.29729 11.6946C4.95123 4.40295 13.0137 0.643351 20.3054 3.29729L20.4422 2.92141C12.9429 0.191917 4.65091 4.05855 1.92141 11.5578L2.29729 11.6946ZM10.6946 29.7027C3.40295 27.0487 -0.356649 18.9862 2.29729 11.6946L1.92141 11.5578C-0.808083 19.057 3.05855 27.349 10.5578 30.0785L10.6946 29.7027ZM28.7027 21.3054C26.0487 28.597 17.9862 32.3566 10.6946 29.7027L10.5578 30.0785C18.057 32.808 26.349 28.9414 29.0785 21.4422L28.7027 21.3054ZM29.5401 15.8869C29.6206 17.7148 29.3419 19.549 28.7027 21.3054L29.0785 21.4422C29.7358 19.6365 30.0226 17.7498 29.9397 15.8693L29.5401 15.8869ZM28.2336 10.5622C29.0129 12.2335 29.4589 14.0434 29.5401 15.8869L29.9397 15.8693C29.8562 13.973 29.3975 12.1116 28.5961 10.3931L28.2336 10.5622ZM24.9944 6.13864C26.3545 7.38585 27.4543 8.8909 28.2336 10.5622L28.5961 10.3931C27.7948 8.67464 26.6638 7.12677 25.2648 5.84383L24.9944 6.13864ZM24.2173 6.17227C24.4226 5.9484 24.7705 5.93334 24.9944 6.13864L25.2648 5.84383C24.8781 5.48922 24.2771 5.51523 23.9225 5.90192L24.2173 6.17227ZM24.251 6.94936C24.0271 6.74406 24.012 6.39615 24.2173 6.17227L23.9225 5.90192C23.5679 6.28861 23.5939 6.88956 23.9806 7.24417L24.251 6.94936ZM27.2367 11.0271C26.5182 9.48626 25.5044 8.09879 24.251 6.94936L23.9806 7.24417C25.1951 8.35787 26.1777 9.70251 26.8741 11.1961L27.2367 11.0271ZM28.4412 15.9353C28.3664 14.2363 27.9551 12.5679 27.2367 11.0271L26.8741 11.1961C27.5706 12.6897 27.9691 14.3067 28.0416 15.9529L28.4412 15.9353ZM27.669 20.9291C28.2585 19.3096 28.5154 17.6197 28.4412 15.9353L28.0416 15.9529C28.1134 17.5846 27.8647 19.222 27.2931 20.7923L27.669 20.9291ZM11.0708 28.669C17.7916 31.1151 25.2228 27.6499 27.669 20.9291L27.2931 20.7923C24.9225 27.3055 17.7208 30.6637 11.2076 28.2931L11.0708 28.669ZM3.33095 12.0708C0.884795 18.7916 4.35005 26.2228 11.0708 28.669L11.2076 28.2931C4.69445 25.9225 1.33623 18.7208 3.70683 12.2076L3.33095 12.0708ZM19.9291 4.33095C13.2084 1.88479 5.77711 5.35005 3.33095 12.0708L3.70683 12.2076C6.07743 5.69445 13.2792 2.33623 19.7923 4.70683L19.9291 4.33095ZM20.6341 4.00223C20.5302 4.28767 20.2146 4.43484 19.9291 4.33095L19.7923 4.70683C20.2854 4.88628 20.8305 4.63207 21.01 4.13904L20.6341 4.00223ZM20.3054 3.29729C20.5908 3.40118 20.738 3.7168 20.6341 4.00223L21.01 4.13904C21.1894 3.64601 20.9352 3.10086 20.4422 2.92141L20.3054 3.29729ZM19.5638 21.3278C19.7285 21.0726 20.0689 20.9991 20.3241 21.1638L20.541 20.8276C20.1 20.5432 19.5121 20.6701 19.2277 21.111L19.5638 21.3278ZM15.5 23.0543C17.4673 23.0543 18.8149 22.4889 19.5638 21.3278L19.2277 21.111C18.5818 22.1124 17.3962 22.6543 15.5 22.6543V23.0543ZM11.3094 21.3097C12.1331 22.4816 13.5224 23.0543 15.5 23.0543V22.6543C13.5974 22.6543 12.3584 22.1066 11.6367 21.0797L11.3094 21.3097ZM10.5432 21.176C10.7917 21.0013 11.1347 21.0612 11.3094 21.3097L11.6367 21.0797C11.335 20.6504 10.7424 20.547 10.3132 20.8487L10.5432 21.176ZM10.4095 21.9422C10.2348 21.6937 10.2947 21.3507 10.5432 21.176L10.3132 20.8487C9.88391 21.1504 9.78051 21.743 10.0822 22.1722L10.4095 21.9422ZM15.5 24.1543C13.1497 24.1543 11.4422 23.4115 10.4095 21.9422L10.0822 22.1722C11.2121 23.7798 13.0637 24.5543 15.5 24.5543V24.1543ZM20.4882 21.9241C19.533 23.405 17.8592 24.1543 15.5 24.1543V24.5543C17.9439 24.5543 19.7715 23.7732 20.8244 22.1409L20.4882 21.9241ZM20.3241 21.1638C20.5794 21.3284 20.6529 21.6688 20.4882 21.9241L20.8244 22.1409C21.1088 21.7 20.9819 21.112 20.541 20.8276L20.3241 21.1638ZM12.45 15.75C12.45 14.673 11.5769 13.8 10.5 13.8V14.2C11.356 14.2 12.05 14.8939 12.05 15.75H12.45ZM10.5 17.7C11.5769 17.7 12.45 16.8269 12.45 15.75H12.05C12.05 16.606 11.356 17.3 10.5 17.3V17.7ZM8.54997 15.75C8.54997 16.8269 9.42302 17.7 10.5 17.7V17.3C9.64393 17.3 8.94997 16.606 8.94997 15.75H8.54997ZM10.5 13.8C9.42302 13.8 8.54997 14.673 8.54997 15.75H8.94997C8.94997 14.8939 9.64393 14.2 10.5 14.2V13.8ZM20.5 14.2C21.356 14.2 22.05 14.8939 22.05 15.75H22.45C22.45 14.673 21.5769 13.8 20.5 13.8V14.2ZM18.95 15.75C18.95 14.8939 19.6439 14.2 20.5 14.2V13.8C19.423 13.8 18.55 14.673 18.55 15.75H18.95ZM20.5 17.3C19.6439 17.3 18.95 16.606 18.95 15.75H18.55C18.55 16.8269 19.423 17.7 20.5 17.7V17.3ZM22.05 15.75C22.05 16.606 21.356 17.3 20.5 17.3V17.7C21.5769 17.7 22.45 16.8269 22.45 15.75H22.05Z" fill="black" fill-opacity="0.2" mask="url(#path-1-outside-1_0_2226)"/>
</g>
<path fill-rule="evenodd" clip-rule="evenodd" d="M27.75 17C32.1683 17 35.75 13.4183 35.75 9C35.75 4.58172 32.1683 1 27.75 1C23.3317 1 19.75 4.58172 19.75 9C19.75 13.4183 23.3317 17 27.75 17Z" fill="#3897F0"/>
<path d="M27.75 17.1C32.2235 17.1 35.85 13.4735 35.85 9C35.85 4.52649 32.2235 0.9 27.75 0.9C23.2765 0.9 19.65 4.52649 19.65 9C19.65 13.4735 23.2765 17.1 27.75 17.1Z" stroke="black" stroke-opacity="0.2" stroke-width="0.2"/>
<defs>
<filter id="filter0_d_0_2226" x="0.0460205" y="1.04602" width="30.9077" height="30.9078" filterUnits="userSpaceOnUse" color-interpolation-filters="sRGB">
<feFlood flood-opacity="0" result="BackgroundImageFix"/>
<feColorMatrix in="SourceAlpha" type="matrix" values="0 0 0 0 0 0 0 0 0 0 0 0 0 0 0 0 0 0 127 0" result="hardAlpha"/>
<feOffset/>
<feGaussianBlur stdDeviation="0.5"/>
<feColorMatrix type="matrix" values="0 0 0 0 0.14902 0 0 0 0 0.14902 0 0 0 0 0.14902 0 0 0 0.4 0"/>
<feBlend mode="normal" in2="BackgroundImageFix" result="effect1_dropShadow_0_2226"/>
<feBlend mode="normal" in="SourceGraphic" in2="effect1_dropShadow_0_2226" result="shape"/>
</filter>
</defs>
</svg>
