<svg width="31" height="32" viewBox="0 0 31 32" fill="none" xmlns="http://www.w3.org/2000/svg">
<g filter="url(#filter0_d_0_2223)">
<mask id="path-1-outside-1_0_2223" maskUnits="userSpaceOnUse" x="0.25" y="0.5" width="30" height="30" fill="black">
<rect fill="white" x="0.25" y="0.5" width="30" height="30"/>
<path fill-rule="evenodd" clip-rule="evenodd" d="M15.5 1.5C23.3701 1.5 29.75 7.87994 29.75 15.75C29.75 23.6201 23.3701 30 15.5 30C7.62994 30 1.25 23.6201 1.25 15.75C1.25 7.87994 7.62994 1.5 15.5 1.5ZM15.5 3C8.45837 3 2.75 8.70837 2.75 15.75C2.75 22.7916 8.45837 28.5 15.5 28.5C22.5416 28.5 28.25 22.7916 28.25 15.75C28.25 8.70837 22.5416 3 15.5 3ZM16.0318 4.68674L15.9067 4.68C15.5341 4.68325 15.1895 4.89481 15.0204 5.23473L10.2048 14.9185L10.1589 15.026C9.98919 15.497 10.1958 16.0309 10.655 16.2592L14.978 18.205L14.1013 25.7132L14.0945 25.8298C14.0942 26.3305 14.4692 26.7629 14.9786 26.8224C15.3975 26.8713 15.8021 26.6521 15.9899 26.2745L20.8055 16.5918L20.8514 16.4844C21.0212 16.0134 20.8146 15.4795 20.3554 15.2511L16.032 13.305L16.9091 5.79596L16.9159 5.67935C16.9162 5.17867 16.5412 4.74621 16.0318 4.68674Z"/>
</mask>
<path fill-rule="evenodd" clip-rule="evenodd" d="M15.5 1.5C23.3701 1.5 29.75 7.87994 29.75 15.75C29.75 23.6201 23.3701 30 15.5 30C7.62994 30 1.25 23.6201 1.25 15.75C1.25 7.87994 7.62994 1.5 15.5 1.5ZM15.5 3C8.45837 3 2.75 8.70837 2.75 15.75C2.75 22.7916 8.45837 28.5 15.5 28.5C22.5416 28.5 28.25 22.7916 28.25 15.75C28.25 8.70837 22.5416 3 15.5 3ZM16.0318 4.68674L15.9067 4.68C15.5341 4.68325 15.1895 4.89481 15.0204 5.23473L10.2048 14.9185L10.1589 15.026C9.98919 15.497 10.1958 16.0309 10.655 16.2592L14.978 18.205L14.1013 25.7132L14.0945 25.8298C14.0942 26.3305 14.4692 26.7629 14.9786 26.8224C15.3975 26.8713 15.8021 26.6521 15.9899 26.2745L20.8055 16.5918L20.8514 16.4844C21.0212 16.0134 20.8146 15.4795 20.3554 15.2511L16.032 13.305L16.9091 5.79596L16.9159 5.67935C16.9162 5.17867 16.5412 4.74621 16.0318 4.68674Z" fill="white"/>
<path d="M15.9067 4.68L15.9175 4.4799L15.905 4.48001L15.9067 4.68ZM16.0318 4.68674L16.055 4.4877L16.0426 4.48703L16.0318 4.68674ZM15.0204 5.23473L15.1995 5.32378L15.1995 5.32378L15.0204 5.23473ZM10.2048 14.9185L10.0254 14.8293L10.0209 14.8399L10.2048 14.9185ZM10.1589 15.026L9.9747 14.9472L9.97076 14.9582L10.1589 15.026ZM10.655 16.2592L10.5658 16.4384L10.5729 16.4416L10.655 16.2592ZM14.978 18.205L15.1767 18.2282L15.1936 18.0827L15.0601 18.0226L14.978 18.205ZM14.1013 25.7132L13.9023 25.6899L13.9017 25.7015L14.1013 25.7132ZM14.0945 25.8298L13.8945 25.8181L13.8945 25.8297L14.0945 25.8298ZM14.9786 26.8224L15.0018 26.6238L14.9786 26.8224ZM15.9899 26.2745L16.169 26.3635L15.9899 26.2745ZM20.8055 16.5918L20.9849 16.681L20.9894 16.6704L20.8055 16.5918ZM20.8514 16.4844L21.0356 16.5631L21.0396 16.5522L20.8514 16.4844ZM20.3554 15.2511L20.4446 15.0719L20.4375 15.0688L20.3554 15.2511ZM16.032 13.305L15.8334 13.2818L15.8164 13.4272L15.9499 13.4873L16.032 13.305ZM16.9091 5.79596L17.1081 5.8192L17.1087 5.80768L16.9091 5.79596ZM16.9159 5.67935L17.1159 5.69108L17.1159 5.67947L16.9159 5.67935ZM29.95 15.75C29.95 7.76949 23.4805 1.3 15.5 1.3V1.7C23.2596 1.7 29.55 7.9904 29.55 15.75H29.95ZM15.5 30.2C23.4805 30.2 29.95 23.7305 29.95 15.75H29.55C29.55 23.5096 23.2596 29.8 15.5 29.8V30.2ZM1.05 15.75C1.05 23.7305 7.51949 30.2 15.5 30.2V29.8C7.7404 29.8 1.45 23.5096 1.45 15.75H1.05ZM15.5 1.3C7.51949 1.3 1.05 7.76949 1.05 15.75H1.45C1.45 7.9904 7.7404 1.7 15.5 1.7V1.3ZM2.95 15.75C2.95 8.81883 8.56883 3.2 15.5 3.2V2.8C8.34791 2.8 2.55 8.59791 2.55 15.75H2.95ZM15.5 28.3C8.56883 28.3 2.95 22.6812 2.95 15.75H2.55C2.55 22.9021 8.34791 28.7 15.5 28.7V28.3ZM28.05 15.75C28.05 22.6812 22.4312 28.3 15.5 28.3V28.7C22.6521 28.7 28.45 22.9021 28.45 15.75H28.05ZM15.5 3.2C22.4312 3.2 28.05 8.81883 28.05 15.75H28.45C28.45 8.59791 22.6521 2.8 15.5 2.8V3.2ZM15.896 4.87971L16.021 4.88645L16.0426 4.48703L15.9175 4.48029L15.896 4.87971ZM15.1995 5.32378C15.3347 5.05189 15.6104 4.88259 15.9085 4.87999L15.905 4.48001C15.4578 4.48391 15.0442 4.73773 14.8414 5.14567L15.1995 5.32378ZM10.3839 15.0076L15.1995 5.32378L14.8414 5.14567L10.0257 14.8295L10.3839 15.0076ZM10.3428 15.1045L10.3887 14.9971L10.0209 14.8399L9.97501 14.9474L10.3428 15.1045ZM10.744 16.0801C10.3768 15.8975 10.2114 15.4704 10.3471 15.0938L9.97076 14.9582C9.76702 15.5236 10.0147 16.1642 10.5659 16.4383L10.744 16.0801ZM15.0601 18.0226L10.737 16.0768L10.5729 16.4416L14.8959 18.3873L15.0601 18.0226ZM14.3 25.7364L15.1767 18.2282L14.7794 18.1818L13.9027 25.69L14.3 25.7364ZM14.2941 25.8415L14.301 25.7249L13.9017 25.7015L13.8948 25.8181L14.2941 25.8415ZM15.0018 26.6238C14.5944 26.5762 14.2942 26.2302 14.2945 25.8299L13.8945 25.8297C13.8941 26.4307 14.344 26.9497 14.9554 27.0211L15.0018 26.6238ZM15.8109 26.1854C15.6606 26.4875 15.3369 26.6629 15.0018 26.6238L14.9554 27.0211C15.4581 27.0798 15.9436 26.8167 16.169 26.3635L15.8109 26.1854ZM20.6264 16.5028L15.8109 26.1854L16.169 26.3635L20.9846 16.6809L20.6264 16.5028ZM20.6675 16.4058L20.6216 16.5132L20.9894 16.6704L21.0353 16.563L20.6675 16.4058ZM20.2664 15.4302C20.6336 15.6128 20.799 16.04 20.6633 16.4166L21.0396 16.5522C21.2433 15.9868 20.9956 15.3462 20.4445 15.0721L20.2664 15.4302ZM15.9499 13.4873L20.2733 15.4335L20.4375 15.0688L16.1141 13.1226L15.9499 13.4873ZM16.7104 5.77276L15.8334 13.2818L16.2306 13.3282L17.1077 5.81917L16.7104 5.77276ZM16.7163 5.66763L16.7094 5.78425L17.1087 5.80768L17.1156 5.69106L16.7163 5.66763ZM16.0086 4.88539C16.416 4.93295 16.7162 5.27889 16.7159 5.67923L17.1159 5.67947C17.1163 5.07844 16.6664 4.55947 16.055 4.48809L16.0086 4.88539Z" fill="black" fill-opacity="0.2" mask="url(#path-1-outside-1_0_2223)"/>
</g>
<defs>
<filter id="filter0_d_0_2223" x="0.0500488" y="0.300049" width="30.8999" height="30.8999" filterUnits="userSpaceOnUse" color-interpolation-filters="sRGB">
<feFlood flood-opacity="0" result="BackgroundImageFix"/>
<feColorMatrix in="SourceAlpha" type="matrix" values="0 0 0 0 0 0 0 0 0 0 0 0 0 0 0 0 0 0 127 0" result="hardAlpha"/>
<feOffset/>
<feGaussianBlur stdDeviation="0.5"/>
<feColorMatrix type="matrix" values="0 0 0 0 0.14902 0 0 0 0 0.14902 0 0 0 0 0.14902 0 0 0 0.4 0"/>
<feBlend mode="normal" in2="BackgroundImageFix" result="effect1_dropShadow_0_2223"/>
<feBlend mode="normal" in="SourceGraphic" in2="effect1_dropShadow_0_2223" result="shape"/>
</filter>
</defs>
</svg>
