<svg width="34" height="34" viewBox="0 0 34 34" fill="none" xmlns="http://www.w3.org/2000/svg">
<path fill-rule="evenodd" clip-rule="evenodd" d="M17 34C26.3888 34 34 26.3888 34 17C34 7.61116 26.3888 0 17 0C7.61116 0 0 7.61116 0 17C0 26.3888 7.61116 34 17 34Z" fill="white" fill-opacity="0.3"/>
<path fill-rule="evenodd" clip-rule="evenodd" d="M19.0576 7C19.3394 7 19.608 7.11885 19.7976 7.32733L21.8512 9.58634C21.946 9.69057 22.0803 9.75 22.2212 9.75H23.7C25.5225 9.75 27 11.2275 27 13.05V21.7C27 23.5225 25.5225 25 23.7 25H10.3C8.47746 25 7 23.5225 7 21.7V13.05C7 11.2275 8.47746 9.75 10.3 9.75H11.7788C11.9197 9.75 12.054 9.69057 12.1488 9.58634L14.2024 7.32733C14.392 7.11885 14.6606 7 14.9424 7H19.0576ZM17 11.5C13.9624 11.5 11.5 13.9624 11.5 17C11.5 20.0376 13.9624 22.5 17 22.5C20.0376 22.5 22.5 20.0376 22.5 17C22.5 13.9624 20.0376 11.5 17 11.5ZM17 13.5C18.933 13.5 20.5 15.067 20.5 17C20.5 18.933 18.933 20.5 17 20.5C15.067 20.5 13.5 18.933 13.5 17C13.5 15.067 15.067 13.5 17 13.5Z" fill="white"/>
</svg>
