<svg width="124" height="124" viewBox="0 0 124 124" fill="none" xmlns="http://www.w3.org/2000/svg">
<path fill-rule="evenodd" clip-rule="evenodd" d="M28.1894 123.939C25.424 123.841 21.8599 123.624 20.24 123.297C17.7672 122.798 15.4319 122.041 13.4899 121.051C11.2082 119.888 9.16319 118.405 7.39739 116.641C5.62755 114.875 4.13797 112.828 2.97046 110.543C1.98342 108.611 1.22674 106.29 0.725259 103.832C0.391716 102.195 0.171124 98.6047 0.0711247 95.8215C0.030573 94.6839 0.00976637 93.2117 0.00976637 92.5328L0 31.4768C0 30.8006 0.0205943 29.328 0.0609337 28.1891C0.159234 25.424 0.375581 21.8599 0.702754 20.24C1.2019 17.7674 1.95922 15.4319 2.94881 13.4899C4.11185 11.208 5.59528 9.1634 7.35832 7.39739C9.12476 5.62777 11.1719 4.13818 13.4568 2.97046C15.3886 1.98363 17.7096 1.22674 20.1682 0.725259C21.8045 0.391716 25.3953 0.171124 28.1785 0.071337C29.3157 0.030573 30.7881 0.00976637 31.467 0.00976637L92.523 0C93.1994 0 94.672 0.020382 95.8104 0.0609337C98.5758 0.159447 102.14 0.375581 103.76 0.702754C106.233 1.20211 108.568 1.95943 110.51 2.94881C112.792 4.11185 114.837 5.59549 116.602 7.35832C118.372 9.12498 119.862 11.1717 121.029 13.4568C122.016 15.3886 122.773 17.7094 123.275 20.1682C123.608 21.8045 123.829 25.3955 123.929 28.1785C123.969 29.3159 123.99 30.7881 123.99 31.467L124 92.523C124 93.1994 123.979 94.672 123.939 95.8106C123.84 98.5758 123.624 102.14 123.297 103.76C122.798 106.233 122.041 108.568 121.051 110.51C119.888 112.792 118.404 114.837 116.642 116.603C114.875 118.372 112.828 119.862 110.543 121.029C108.611 122.016 106.29 122.773 103.832 123.275C102.195 123.608 98.6045 123.829 95.8215 123.928C94.6839 123.969 93.2117 123.99 92.5328 123.99L31.4768 124C30.8004 124 29.3278 123.979 28.1894 123.939Z" fill="url(#paint0_radial_7_294)"/>
<mask id="mask0_7_294" style="mask-type:alpha" maskUnits="userSpaceOnUse" x="0" y="0" width="124" height="124">
<path fill-rule="evenodd" clip-rule="evenodd" d="M28.1894 123.939C25.424 123.841 21.8599 123.624 20.24 123.297C17.7672 122.798 15.4319 122.041 13.4899 121.051C11.2082 119.888 9.16319 118.405 7.39739 116.641C5.62755 114.875 4.13797 112.828 2.97046 110.543C1.98342 108.611 1.22674 106.29 0.725259 103.832C0.391716 102.195 0.171124 98.6047 0.0711247 95.8215C0.030573 94.6839 0.00976637 93.2117 0.00976637 92.5328L0 31.4768C0 30.8006 0.0205943 29.328 0.0609337 28.1891C0.159234 25.424 0.375581 21.8599 0.702754 20.24C1.2019 17.7674 1.95922 15.4319 2.94881 13.4899C4.11185 11.208 5.59528 9.1634 7.35832 7.39739C9.12476 5.62777 11.1719 4.13818 13.4568 2.97046C15.3886 1.98363 17.7096 1.22674 20.1682 0.725259C21.8045 0.391716 25.3953 0.171124 28.1785 0.071337C29.3157 0.030573 30.7881 0.00976637 31.467 0.00976637L92.523 0C93.1994 0 94.672 0.020382 95.8104 0.0609337C98.5758 0.159447 102.14 0.375581 103.76 0.702754C106.233 1.20211 108.568 1.95943 110.51 2.94881C112.792 4.11185 114.837 5.59549 116.602 7.35832C118.372 9.12498 119.862 11.1717 121.029 13.4568C122.016 15.3886 122.773 17.7094 123.275 20.1682C123.608 21.8045 123.829 25.3955 123.929 28.1785C123.969 29.3159 123.99 30.7881 123.99 31.467L124 92.523C124 93.1994 123.979 94.672 123.939 95.8106C123.84 98.5758 123.624 102.14 123.297 103.76C122.798 106.233 122.041 108.568 121.051 110.51C119.888 112.792 118.404 114.837 116.642 116.603C114.875 118.372 112.828 119.862 110.543 121.029C108.611 122.016 106.29 122.773 103.832 123.275C102.195 123.608 98.6045 123.829 95.8215 123.928C94.6839 123.969 93.2117 123.99 92.5328 123.99L31.4768 124C30.8004 124 29.3278 123.979 28.1894 123.939Z" fill="white"/>
</mask>
<g mask="url(#mask0_7_294)">
<path fill-rule="evenodd" clip-rule="evenodd" d="M62.25 15.9514C49.7997 15.9514 48.236 16.0062 43.3443 16.2301C38.4613 16.4549 35.1283 17.2323 32.2118 18.373C29.1951 19.5511 26.636 21.127 24.0865 23.6918C21.5351 26.2556 19.968 28.829 18.7926 31.8617C17.6555 34.7954 16.8814 38.1482 16.6617 43.0566C16.4428 47.9766 16.3855 49.5497 16.3855 62.0765C16.3855 74.6033 16.4409 76.1706 16.6626 81.0906C16.8872 86.001 17.6602 89.3528 18.7936 92.2856C19.9661 95.3192 21.5332 97.8926 24.0837 100.456C26.6322 103.022 29.1912 104.602 32.2061 105.78C35.1244 106.921 38.4585 107.698 43.3405 107.923C48.2331 108.147 49.7955 108.202 62.2515 108.202C74.7094 108.202 76.2679 108.147 81.1605 107.923C86.0435 107.698 89.3804 106.921 92.2988 105.78C95.3146 104.602 97.8698 103.022 100.418 100.456C102.97 97.8926 104.537 95.3192 105.712 92.2865C106.84 89.3528 107.614 86.0001 107.843 81.0916C108.063 76.1716 108.12 74.6033 108.12 62.0765C108.12 49.5497 108.063 47.9776 107.843 43.0576C107.614 38.1472 106.84 34.7954 105.712 31.8627C104.537 28.829 102.97 26.2556 100.418 23.6918C97.8669 21.1261 95.3155 19.5501 92.2959 18.373C89.3718 17.2323 86.0368 16.4549 81.1538 16.2301C76.2622 16.0062 74.7042 15.9514 62.25 15.9514ZM58.1425 24.2635C58.9415 24.2622 59.801 24.2626 60.7285 24.263H60.7286H60.7286H60.7287C61.2188 24.2633 61.728 24.2635 62.2573 24.2635C74.504 24.2635 75.9555 24.3077 80.7917 24.5287C85.2638 24.7343 87.691 25.4858 89.3078 26.1171C91.4483 26.9532 92.9744 27.9525 94.5788 29.5669C96.1842 31.1813 97.178 32.7188 98.0113 34.8713C98.6391 36.4953 99.3873 38.9361 99.5909 43.4333C99.8106 48.2956 99.8584 49.7562 99.8584 62.0659C99.8584 74.3755 99.8106 75.8361 99.5909 80.6985C99.3864 85.1957 98.6391 87.6365 98.0113 89.2605C97.1799 91.413 96.1842 92.9457 94.5788 94.5591C92.9735 96.1735 91.4493 97.1728 89.3078 98.0089C87.6929 98.6431 85.2638 99.3926 80.7917 99.5983C75.9565 99.8193 74.504 99.8673 62.2573 99.8673C50.0096 99.8673 48.5581 99.8193 43.7228 99.5983C39.2507 99.3907 36.8235 98.6392 35.2057 98.0079C33.0652 97.1719 31.5363 96.1725 29.9309 94.5581C28.3255 92.9437 27.3317 91.4101 26.4985 89.2566C25.8707 87.6326 25.1224 85.1918 24.9189 80.6947C24.6991 75.8323 24.6552 74.3717 24.6552 62.0544C24.6552 49.737 24.6991 48.2841 24.9189 43.4217C25.1234 38.9245 25.8707 36.4838 26.4985 34.8578C27.3298 32.7053 28.3255 31.1678 29.9309 29.5535C31.5363 27.9391 33.0652 26.9397 35.2057 26.1018C36.8226 25.4675 39.2507 24.718 43.7228 24.5114C47.9541 24.3192 49.5939 24.2616 58.1425 24.252V24.2635ZM81.2369 37.4554C81.2369 34.3987 83.7023 31.9223 86.7411 31.9223V31.9204C89.7798 31.9204 92.2452 34.3996 92.2452 37.4554C92.2452 40.5112 89.7798 42.9904 86.7411 42.9904C83.7023 42.9904 81.2369 40.5112 81.2369 37.4554ZM62.2572 38.3893C49.2489 38.3893 38.7021 48.9952 38.7021 62.0764C38.7021 75.1577 49.2489 85.7588 62.2572 85.7588C75.2655 85.7588 85.8085 75.1577 85.8085 62.0764C85.8085 48.9952 75.2646 38.3893 62.2563 38.3893H62.2572ZM77.5465 62.0766C77.5465 53.5847 70.7007 46.7015 62.2572 46.7015C53.8127 46.7015 46.9679 53.5847 46.9679 62.0766C46.9679 70.5674 53.8127 77.4516 62.2572 77.4516C70.7007 77.4516 77.5465 70.5674 77.5465 62.0766Z" fill="white"/>
</g>
<defs>
<radialGradient id="paint0_radial_7_294" cx="0" cy="0" r="1" gradientUnits="userSpaceOnUse" gradientTransform="translate(32.9377 133.55) rotate(-90) scale(122.893)">
<stop stop-color="#FFDD55"/>
<stop offset="0.1" stop-color="#FFDD55"/>
<stop offset="0.5" stop-color="#FF543E"/>
<stop offset="1" stop-color="#C837AB"/>
</radialGradient>
</defs>
</svg>
