<svg width="27" height="27" viewBox="0 0 27 27" fill="none" xmlns="http://www.w3.org/2000/svg">
<g filter="url(#filter0_d_0_2199)">
<mask id="path-1-outside-1_0_2199" maskUnits="userSpaceOnUse" x="1" y="1" width="25" height="25" fill="black">
<rect fill="white" x="1" y="1" width="25" height="25"/>
<path fill-rule="evenodd" clip-rule="evenodd" d="M15.2542 2.2514C15.165 2.09591 14.9995 2 14.8203 2H12.3857C12.2063 2 12.0407 2.09608 11.9516 2.25179L11.3256 3.3469C10.1096 3.61312 8.97253 4.09007 7.95449 4.73753L6.74336 4.40961C6.57041 4.36266 6.38556 4.41187 6.25883 4.5386L4.53727 6.26016C4.41043 6.387 4.36126 6.57205 4.40839 6.74512L4.73492 7.94596C4.07956 8.96854 3.59664 10.1122 3.3272 11.336L2.2514 11.9537C2.09591 12.0428 2 12.2083 2 12.3875V14.8222C2 15.0016 2.09608 15.1672 2.25179 15.2563L3.3272 15.8719C3.59664 17.0956 4.07956 18.2393 4.73492 19.2619L4.40961 20.4645C4.36266 20.6375 4.41187 20.8223 4.5386 20.949L6.26016 22.6706C6.387 22.7974 6.57205 22.8466 6.74512 22.7995L7.95449 22.4703C8.97253 23.1178 10.1096 23.5948 11.3256 23.861L11.9537 24.9565C12.0428 25.112 12.2083 25.2079 12.3875 25.2079H14.8222C15.0016 25.2079 15.1672 25.1118 15.2563 24.9561L15.8896 23.8495C17.0916 23.5799 18.2156 23.1042 19.2227 22.4615L20.4645 22.7983C20.6375 22.8452 20.8223 22.796 20.949 22.6693L22.6706 20.9477C22.7974 20.8209 22.8466 20.6358 22.7995 20.4628L22.4594 19.2132C23.0939 18.2111 23.5633 17.0943 23.8296 15.9009L24.9565 15.2542C25.112 15.165 25.2079 14.9995 25.2079 14.8203V12.3857C25.2079 12.2063 25.1118 12.0407 24.9561 11.9516L23.8296 11.307C23.5632 10.1131 23.0935 8.996 22.4588 7.99373L22.7983 6.74336C22.8452 6.57041 22.796 6.38556 22.6693 6.25883L20.9477 4.53727C20.8209 4.41043 20.6358 4.36126 20.4628 4.40839L19.2227 4.74641C18.2153 4.1035 17.0909 3.62773 15.8886 3.35818L15.2542 2.2514ZM4.60118 13.0061C4.90889 8.31424 8.81197 4.60394 13.5816 4.60394C18.5522 4.60394 22.5816 8.63338 22.5816 13.6039C22.5816 18.5745 18.5522 22.6039 13.5816 22.6039C8.81197 22.6039 4.90889 18.8936 4.60118 14.2018V13.0061Z"/>
</mask>
<path fill-rule="evenodd" clip-rule="evenodd" d="M15.2542 2.2514C15.165 2.09591 14.9995 2 14.8203 2H12.3857C12.2063 2 12.0407 2.09608 11.9516 2.25179L11.3256 3.3469C10.1096 3.61312 8.97253 4.09007 7.95449 4.73753L6.74336 4.40961C6.57041 4.36266 6.38556 4.41187 6.25883 4.5386L4.53727 6.26016C4.41043 6.387 4.36126 6.57205 4.40839 6.74512L4.73492 7.94596C4.07956 8.96854 3.59664 10.1122 3.3272 11.336L2.2514 11.9537C2.09591 12.0428 2 12.2083 2 12.3875V14.8222C2 15.0016 2.09608 15.1672 2.25179 15.2563L3.3272 15.8719C3.59664 17.0956 4.07956 18.2393 4.73492 19.2619L4.40961 20.4645C4.36266 20.6375 4.41187 20.8223 4.5386 20.949L6.26016 22.6706C6.387 22.7974 6.57205 22.8466 6.74512 22.7995L7.95449 22.4703C8.97253 23.1178 10.1096 23.5948 11.3256 23.861L11.9537 24.9565C12.0428 25.112 12.2083 25.2079 12.3875 25.2079H14.8222C15.0016 25.2079 15.1672 25.1118 15.2563 24.9561L15.8896 23.8495C17.0916 23.5799 18.2156 23.1042 19.2227 22.4615L20.4645 22.7983C20.6375 22.8452 20.8223 22.796 20.949 22.6693L22.6706 20.9477C22.7974 20.8209 22.8466 20.6358 22.7995 20.4628L22.4594 19.2132C23.0939 18.2111 23.5633 17.0943 23.8296 15.9009L24.9565 15.2542C25.112 15.165 25.2079 14.9995 25.2079 14.8203V12.3857C25.2079 12.2063 25.1118 12.0407 24.9561 11.9516L23.8296 11.307C23.5632 10.1131 23.0935 8.996 22.4588 7.99373L22.7983 6.74336C22.8452 6.57041 22.796 6.38556 22.6693 6.25883L20.9477 4.53727C20.8209 4.41043 20.6358 4.36126 20.4628 4.40839L19.2227 4.74641C18.2153 4.1035 17.0909 3.62773 15.8886 3.35818L15.2542 2.2514ZM4.60118 13.0061C4.90889 8.31424 8.81197 4.60394 13.5816 4.60394C18.5522 4.60394 22.5816 8.63338 22.5816 13.6039C22.5816 18.5745 18.5522 22.6039 13.5816 22.6039C8.81197 22.6039 4.90889 18.8936 4.60118 14.2018V13.0061Z" fill="white"/>
<path d="M15.2542 2.2514L15.0806 2.35084L15.0806 2.35087L15.2542 2.2514ZM11.9516 2.25179L11.778 2.1525L11.778 2.15253L11.9516 2.25179ZM11.3256 3.3469L11.3684 3.54227L11.4551 3.52327L11.4992 3.44615L11.3256 3.3469ZM7.95449 4.73753L7.90222 4.93058L7.98738 4.95364L8.06182 4.90629L7.95449 4.73753ZM6.74336 4.40961L6.69097 4.60262L6.69109 4.60266L6.74336 4.40961ZM6.25883 4.5386L6.11741 4.39717V4.39717L6.25883 4.5386ZM4.40839 6.74512L4.60139 6.69264L4.60136 6.69256L4.40839 6.74512ZM4.73492 7.94596L4.9033 8.05387L4.9512 7.97914L4.92791 7.89348L4.73492 7.94596ZM3.3272 11.336L3.42679 11.5094L3.50351 11.4654L3.52253 11.379L3.3272 11.336ZM2.2514 11.9537L2.35084 12.1273L2.35099 12.1272L2.2514 11.9537ZM2.25179 15.2563L2.35115 15.0827L2.35107 15.0826L2.25179 15.2563ZM3.3272 15.8719L3.52253 15.8289L3.50347 15.7423L3.42657 15.6983L3.3272 15.8719ZM4.73492 19.2619L4.92798 19.3141L4.95112 19.2286L4.9033 19.154L4.73492 19.2619ZM4.40961 20.4645L4.60262 20.5169L4.60267 20.5167L4.40961 20.4645ZM4.5386 20.949L4.39717 21.0905L4.39717 21.0905L4.5386 20.949ZM6.26016 22.6706L6.11874 22.812L6.26016 22.6706ZM6.74512 22.7995L6.6926 22.6065L6.69256 22.6065L6.74512 22.7995ZM7.95449 22.4703L8.06182 22.3016L7.98725 22.2542L7.90197 22.2774L7.95449 22.4703ZM11.3256 23.861L11.4991 23.7615L11.455 23.6846L11.3684 23.6656L11.3256 23.861ZM11.9537 24.9565L12.1273 24.857L12.1272 24.857L11.9537 24.9565ZM15.2563 24.9561L15.0827 24.8567L15.0826 24.8568L15.2563 24.9561ZM15.8896 23.8495L15.8458 23.6543L15.7598 23.6736L15.716 23.7501L15.8896 23.8495ZM19.2227 22.4615L19.2751 22.2684L19.1897 22.2453L19.1151 22.2929L19.2227 22.4615ZM20.4645 22.7983L20.5169 22.6053L20.5169 22.6052L20.4645 22.7983ZM22.7995 20.4628L22.6065 20.5153L22.6065 20.5153L22.7995 20.4628ZM22.4594 19.2132L22.2905 19.1062L22.2433 19.1806L22.2664 19.2657L22.4594 19.2132ZM23.8296 15.9009L23.7301 15.7274L23.6536 15.7713L23.6344 15.8573L23.8296 15.9009ZM24.9565 15.2542L24.857 15.0806L24.8569 15.0807L24.9565 15.2542ZM24.9561 11.9516L24.8567 12.1252L24.8568 12.1252L24.9561 11.9516ZM23.8296 11.307L23.6344 11.3505L23.6537 11.4367L23.7303 11.4806L23.8296 11.307ZM22.4588 7.99373L22.2658 7.94133L22.2427 8.02633L22.2898 8.10074L22.4588 7.99373ZM22.7983 6.74336L22.9913 6.79576L22.9913 6.79575L22.7983 6.74336ZM22.6693 6.25883L22.5279 6.40026L22.5279 6.40026L22.6693 6.25883ZM20.9477 4.53727L20.8063 4.67869V4.67869L20.9477 4.53727ZM20.4628 4.40839L20.4102 4.21542L20.4102 4.21543L20.4628 4.40839ZM19.2227 4.74641L19.1151 4.915L19.1898 4.96267L19.2753 4.93937L19.2227 4.74641ZM15.8886 3.35818L15.7151 3.45765L15.7589 3.53406L15.8449 3.55333L15.8886 3.35818ZM4.60118 13.0061L4.40118 12.9929V13.0061H4.60118ZM4.60118 14.2018H4.40075L4.40161 14.2149L4.60118 14.2018ZM14.8203 2.2C14.9279 2.2 15.0272 2.25755 15.0806 2.35084L15.4277 2.15197C15.3029 1.93428 15.0712 1.8 14.8203 1.8V2.2ZM12.3857 2.2H14.8203V1.8H12.3857V2.2ZM12.1252 2.35107C12.1787 2.25765 12.278 2.2 12.3857 2.2V1.8C12.1345 1.8 11.9027 1.93451 11.778 2.1525L12.1252 2.35107ZM11.4992 3.44615L12.1253 2.35105L11.778 2.15253L11.152 3.24764L11.4992 3.44615ZM8.06182 4.90629C9.06047 4.27117 10.1758 3.80338 11.3684 3.54227L11.2828 3.15152C10.0435 3.42287 8.88459 3.90898 7.84716 4.56877L8.06182 4.90629ZM6.69109 4.60266L7.90222 4.93058L8.00676 4.54448L6.79563 4.21656L6.69109 4.60266ZM6.40026 4.68002C6.47629 4.60398 6.5872 4.57446 6.69097 4.60262L6.79575 4.21659C6.55361 4.15087 6.29482 4.21976 6.11741 4.39717L6.40026 4.68002ZM4.67869 6.40159L6.40026 4.68002L6.11741 4.39717L4.39584 6.11874L4.67869 6.40159ZM4.60136 6.69256C4.57308 6.58872 4.60259 6.47769 4.67869 6.40159L4.39584 6.11874C4.21828 6.29631 4.14943 6.55539 4.21542 6.79768L4.60136 6.69256ZM4.92791 7.89348L4.60139 6.69264L4.2154 6.79759L4.54192 7.99843L4.92791 7.89348ZM3.52253 11.379C3.78678 10.1788 4.26042 9.05699 4.9033 8.05387L4.56653 7.83804C3.89869 8.8801 3.4065 10.0457 3.13188 11.293L3.52253 11.379ZM2.35099 12.1272L3.42679 11.5094L3.22762 11.1626L2.15181 11.7803L2.35099 12.1272ZM2.2 12.3875C2.2 12.28 2.25755 12.1807 2.35084 12.1273L2.15197 11.7802C1.93428 11.9049 1.8 12.1366 1.8 12.3875H2.2ZM2.2 14.8222V12.3875H1.8V14.8222H2.2ZM2.35107 15.0826C2.25765 15.0292 2.2 14.9298 2.2 14.8222H1.8C1.8 15.0733 1.93451 15.3052 2.1525 15.4299L2.35107 15.0826ZM3.42657 15.6983L2.35115 15.0827L2.15243 15.4298L3.22784 16.0454L3.42657 15.6983ZM4.9033 19.154C4.26042 18.1509 3.78678 17.0291 3.52253 15.8289L3.13188 15.9149C3.4065 17.1622 3.89869 18.3278 4.56653 19.3698L4.9033 19.154ZM4.60267 20.5167L4.92798 19.3141L4.54186 19.2097L4.21655 20.4123L4.60267 20.5167ZM4.68002 20.8076C4.60398 20.7316 4.57446 20.6207 4.60262 20.5169L4.21659 20.4121C4.15087 20.6543 4.21976 20.9131 4.39717 21.0905L4.68002 20.8076ZM6.40159 22.5292L4.68002 20.8076L4.39717 21.0905L6.11874 22.812L6.40159 22.5292ZM6.69256 22.6065C6.58872 22.6348 6.47769 22.6053 6.40159 22.5292L6.11874 22.812C6.29631 22.9896 6.55539 23.0584 6.79768 22.9925L6.69256 22.6065ZM7.90197 22.2774L6.6926 22.6065L6.79764 22.9925L8.00701 22.6633L7.90197 22.2774ZM11.3684 23.6656C10.1758 23.4045 9.06047 22.9367 8.06182 22.3016L7.84716 22.6391C8.88459 23.2989 10.0435 23.785 11.2828 24.0564L11.3684 23.6656ZM12.1272 24.857L11.4991 23.7615L11.1521 23.9605L11.7802 25.056L12.1272 24.857ZM12.3875 25.0079C12.28 25.0079 12.1807 24.9503 12.1273 24.857L11.7802 25.0559C11.9049 25.2736 12.1366 25.4079 12.3875 25.4079V25.0079ZM14.8222 25.0079H12.3875V25.4079H14.8222V25.0079ZM15.0826 24.8568C15.0292 24.9502 14.9298 25.0079 14.8222 25.0079V25.4079C15.0733 25.4079 15.3052 25.2734 15.4299 25.0554L15.0826 24.8568ZM15.716 23.7501L15.0827 24.8567L15.4298 25.0554L16.0632 23.9488L15.716 23.7501ZM19.1151 22.2929C18.1272 22.9234 17.0247 23.3899 15.8458 23.6543L15.9334 24.0446C17.1584 23.7699 18.304 23.285 19.3303 22.6301L19.1151 22.2929ZM20.5169 22.6052L19.2751 22.2684L19.1704 22.6545L20.4122 22.9913L20.5169 22.6052ZM20.8076 22.5279C20.7316 22.6039 20.6207 22.6334 20.5169 22.6053L20.4121 22.9913C20.6543 23.057 20.9131 22.9881 21.0905 22.8107L20.8076 22.5279ZM22.5292 20.8063L20.8076 22.5279L21.0905 22.8107L22.812 21.0891L22.5292 20.8063ZM22.6065 20.5153C22.6348 20.6192 22.6053 20.7302 22.5292 20.8063L22.812 21.0891C22.9896 20.9116 23.0584 20.6525 22.9925 20.4102L22.6065 20.5153ZM22.2664 19.2657L22.6065 20.5153L22.9925 20.4102L22.6524 19.1606L22.2664 19.2657ZM23.6344 15.8573C23.3732 17.0278 22.9128 18.1232 22.2905 19.1062L22.6284 19.3201C23.2749 18.299 23.7534 17.1608 24.0248 15.9445L23.6344 15.8573ZM24.8569 15.0807L23.7301 15.7274L23.9292 16.0744L25.056 15.4276L24.8569 15.0807ZM25.0079 14.8203C25.0079 14.9279 24.9503 15.0272 24.857 15.0806L25.0559 15.4277C25.2736 15.3029 25.4079 15.0712 25.4079 14.8203H25.0079ZM25.0079 12.3857V14.8203H25.4079V12.3857H25.0079ZM24.8568 12.1252C24.9502 12.1787 25.0079 12.278 25.0079 12.3857H25.4079C25.4079 12.1345 25.2734 11.9027 25.0554 11.778L24.8568 12.1252ZM23.7303 11.4806L24.8567 12.1252L25.0554 11.778L23.929 11.1334L23.7303 11.4806ZM22.2898 8.10074C22.9125 9.08391 23.3731 10.1797 23.6344 11.3505L24.0248 11.2634C23.7533 10.0466 23.2746 8.90808 22.6278 7.88672L22.2898 8.10074ZM22.6053 6.69096L22.2658 7.94133L22.6518 8.04613L22.9913 6.79576L22.6053 6.69096ZM22.5279 6.40026C22.6039 6.47629 22.6334 6.5872 22.6053 6.69097L22.9913 6.79575C23.057 6.55362 22.9881 6.29482 22.8107 6.11741L22.5279 6.40026ZM20.8063 4.67869L22.5279 6.40026L22.8107 6.11741L21.0891 4.39584L20.8063 4.67869ZM20.5153 4.60136C20.6192 4.57308 20.7302 4.60259 20.8063 4.67869L21.0891 4.39584C20.9116 4.21828 20.6525 4.14943 20.4102 4.21542L20.5153 4.60136ZM19.2753 4.93937L20.5154 4.60135L20.4102 4.21543L19.1701 4.55345L19.2753 4.93937ZM15.8449 3.55333C17.0241 3.8177 18.1269 4.28434 19.1151 4.915L19.3303 4.57782C18.3037 3.92266 17.1578 3.43775 15.9324 3.16302L15.8449 3.55333ZM15.0806 2.35087L15.7151 3.45765L16.0621 3.25871L15.4277 2.15194L15.0806 2.35087ZM13.5816 4.40394C8.7059 4.40394 4.71617 8.1967 4.40161 12.993L4.80075 13.0192C5.10161 8.43178 8.91804 4.80394 13.5816 4.80394V4.40394ZM22.7816 13.6039C22.7816 8.52292 18.6627 4.40394 13.5816 4.40394V4.80394C18.4417 4.80394 22.3816 8.74383 22.3816 13.6039H22.7816ZM13.5816 22.8039C18.6627 22.8039 22.7816 18.685 22.7816 13.6039H22.3816C22.3816 18.464 18.4417 22.4039 13.5816 22.4039V22.8039ZM4.40161 14.2149C4.71617 19.0112 8.7059 22.8039 13.5816 22.8039V22.4039C8.91804 22.4039 5.10161 18.7761 4.80075 14.1887L4.40161 14.2149ZM4.40118 13.0061V14.2018H4.80118V13.0061H4.40118Z" fill="black" fill-opacity="0.2" mask="url(#path-1-outside-1_0_2199)"/>
</g>
<defs>
<filter id="filter0_d_0_2199" x="0.800049" y="0.799988" width="25.6078" height="25.6079" filterUnits="userSpaceOnUse" color-interpolation-filters="sRGB">
<feFlood flood-opacity="0" result="BackgroundImageFix"/>
<feColorMatrix in="SourceAlpha" type="matrix" values="0 0 0 0 0 0 0 0 0 0 0 0 0 0 0 0 0 0 127 0" result="hardAlpha"/>
<feOffset/>
<feGaussianBlur stdDeviation="0.5"/>
<feColorMatrix type="matrix" values="0 0 0 0 0.14902 0 0 0 0 0.14902 0 0 0 0 0.14902 0 0 0 0.4 0"/>
<feBlend mode="normal" in2="BackgroundImageFix" result="effect1_dropShadow_0_2199"/>
<feBlend mode="normal" in="SourceGraphic" in2="effect1_dropShadow_0_2199" result="shape"/>
</filter>
</defs>
</svg>
